<svg xmlns="http://www.w3.org/2000/svg">
    <defs>
        <symbol id="moon-icon" xmlns="http://www.w3.org/2000/svg">
            <path d="M3.45105 17.5L3.60056 16.7651C3.30142 16.7042 2.99524 16.8307 2.82633 17.085C2.65741 17.3393 2.65947 17.6706 2.83153 17.9227L3.45105 17.5ZM11.451 3.5L11.4708 2.75026C11.1648 2.74222 10.8847 2.92087 10.7629 3.20166C10.6412 3.48244 10.7023 3.80903 10.9173 4.02685L11.451 3.5ZM21.201 12.5C21.201 7.18571 16.8584 2.89187 11.4708 2.75026L11.4313 4.24974C16.0452 4.37102 19.701 8.03726 19.701 12.5H21.201ZM11.451 22.25C16.9921 22.25 21.201 17.8776 21.201 12.5H19.701C19.701 17.0653 16.1477 20.75 11.451 20.75V22.25ZM2.83153 17.9227C4.64405 20.5791 7.99904 22.25 11.451 22.25V20.75C8.44527 20.75 5.57681 19.2847 4.07057 17.0773L2.83153 17.9227ZM3.30154 18.2349C7.64261 19.118 11.363 16.8566 13.2142 13.6399C15.0678 10.4189 15.1042 6.13357 11.9848 2.97315L10.9173 4.02685C13.4808 6.62418 13.4932 10.1476 11.9141 12.8917C10.3326 15.6399 7.21152 17.4996 3.60056 16.7651L3.30154 18.2349Z" />
        </symbol>
        <symbol id="sun-icon" xmlns="http://www.w3.org/2000/svg">
            <path d="M3 11.25C2.58579 11.25 2.25 11.5858 2.25 12C2.25 12.4142 2.58579 12.75 3 12.75V11.25ZM5 12.75C5.41421 12.75 5.75 12.4142 5.75 12C5.75 11.5858 5.41421 11.25 5 11.25V12.75ZM4.46973 18.4697C4.17684 18.7626 4.17684 19.2374 4.46973 19.5303C4.76262 19.8232 5.2375 19.8232 5.53039 19.5303L4.46973 18.4697ZM7.53039 17.5303C7.82328 17.2374 7.82328 16.7626 7.53039 16.4697C7.2375 16.1768 6.76262 16.1768 6.46973 16.4697L7.53039 17.5303ZM12.75 19C12.75 18.5858 12.4142 18.25 12 18.25C11.5858 18.25 11.25 18.5858 11.25 19H12.75ZM11.25 21C11.25 21.4142 11.5858 21.75 12 21.75C12.4142 21.75 12.75 21.4142 12.75 21H11.25ZM17.5303 16.4697C17.2374 16.1768 16.7626 16.1768 16.4697 16.4697C16.1768 16.7626 16.1768 17.2374 16.4697 17.5303L17.5303 16.4697ZM18.4697 19.5303C18.7626 19.8232 19.2374 19.8232 19.5303 19.5303C19.8232 19.2374 19.8232 18.7626 19.5303 18.4697L18.4697 19.5303ZM5.53033 4.46967C5.23744 4.17678 4.76256 4.17678 4.46967 4.46967C4.17678 4.76256 4.17678 5.23744 4.46967 5.53033L5.53033 4.46967ZM6.46967 7.53033C6.76256 7.82322 7.23744 7.82322 7.53033 7.53033C7.82322 7.23744 7.82322 6.76256 7.53033 6.46967L6.46967 7.53033ZM19 11.25C18.5858 11.25 18.25 11.5858 18.25 12C18.25 12.4142 18.5858 12.75 19 12.75V11.25ZM21 12.75C21.4142 12.75 21.75 12.4142 21.75 12C21.75 11.5858 21.4142 11.25 21 11.25V12.75ZM16.4696 6.46967C16.1767 6.76256 16.1767 7.23744 16.4696 7.53033C16.7625 7.82322 17.2374 7.82322 17.5303 7.53033L16.4696 6.46967ZM19.5303 5.53033C19.8232 5.23744 19.8232 4.76256 19.5303 4.46967C19.2374 4.17678 18.7625 4.17678 18.4696 4.46967L19.5303 5.53033ZM12.75 3C12.75 2.58579 12.4142 2.25 12 2.25C11.5858 2.25 11.25 2.58579 11.25 3H12.75ZM11.25 5C11.25 5.41421 11.5858 5.75 12 5.75C12.4142 5.75 12.75 5.41421 12.75 5H11.25ZM14.25 12C14.25 13.2426 13.2426 14.25 12 14.25V15.75C14.0711 15.75 15.75 14.0711 15.75 12H14.25ZM12 14.25C10.7574 14.25 9.75 13.2426 9.75 12H8.25C8.25 14.0711 9.92893 15.75 12 15.75V14.25ZM9.75 12C9.75 10.7574 10.7574 9.75 12 9.75V8.25C9.92893 8.25 8.25 9.92893 8.25 12H9.75ZM12 9.75C13.2426 9.75 14.25 10.7574 14.25 12H15.75C15.75 9.92893 14.0711 8.25 12 8.25V9.75ZM3 12.75H5V11.25H3V12.75ZM5.53039 19.5303L7.53039 17.5303L6.46973 16.4697L4.46973 18.4697L5.53039 19.5303ZM11.25 19V21H12.75V19H11.25ZM16.4697 17.5303L18.4697 19.5303L19.5303 18.4697L17.5303 16.4697L16.4697 17.5303ZM4.46967 5.53033L6.46967 7.53033L7.53033 6.46967L5.53033 4.46967L4.46967 5.53033ZM19 12.75H21V11.25H19V12.75ZM17.5303 7.53033L19.5303 5.53033L18.4696 4.46967L16.4696 6.46967L17.5303 7.53033ZM11.25 3V5H12.75V3H11.25Z" />
        </symbol>
        <symbol id="lines-vector" fill="none" xmlns="http://www.w3.org/2000/svg">
            <path opacity="0.7" d="M2.80345 51.8697L262.09 -134.416M1.17712 70.609L276.828 -127.774M5.82487 84.7034L289.325 -119.463M13.8773 96.2964L303.733 -112.573M19.3259 109.805L318.307 -105.806M26.3894 122.124L334 -99.8618M33.3691 134.507L345.143 -90.5662M40.3625 146.873L359.61 -83.7165M47.6961 158.995L370.682 -74.3626M53.7216 172.078L379.289 -63.1804M61.0689 184.182L389.465 -53.1658M69.0981 195.789L399.43 -42.9965M75.2673 208.751L393.901 -21.3809" stroke-width="2" stroke-miterlimit="10" stroke-linecap="round" stroke-linejoin="round" stroke-dasharray="0.3 0.3" />
        </symbol>
        <symbol id="ux-service" xmlns="http://www.w3.org/2000/svg">
            <path d="M4.5 5L5.03033 4.46967C4.81583 4.25517 4.49324 4.191 4.21299 4.30709C3.93273 4.42318 3.75 4.69665 3.75 5H4.5ZM4.5 16H3.75C3.75 16.4142 4.08579 16.75 4.5 16.75V16ZM20.5 16V16.75C20.9142 16.75 21.25 16.4142 21.25 16H20.5ZM20.5 5H21.25C21.25 4.69665 21.0673 4.42318 20.787 4.30709C20.5068 4.191 20.1842 4.25517 19.9697 4.46967L20.5 5ZM16.5 9L15.9697 9.53033C16.2626 9.82322 16.7374 9.82322 17.0303 9.53033L16.5 9ZM8.5 9L7.96967 9.53033C8.26256 9.82322 8.73744 9.82322 9.03033 9.53033L8.5 9ZM12.5 5L13.0303 4.46967C12.7374 4.17678 12.2626 4.17678 11.9697 4.46967L12.5 5ZM4.5 18.25C4.08579 18.25 3.75 18.5858 3.75 19C3.75 19.4142 4.08579 19.75 4.5 19.75V18.25ZM20.5 19.75C20.9142 19.75 21.25 19.4142 21.25 19C21.25 18.5858 20.9142 18.25 20.5 18.25V19.75ZM3.75 5V16H5.25V5H3.75ZM4.5 16.75H20.5V15.25H4.5V16.75ZM21.25 16V5H19.75V16H21.25ZM19.9697 4.46967L15.9697 8.46967L17.0303 9.53033L21.0303 5.53033L19.9697 4.46967ZM3.96967 5.53033L7.96967 9.53033L9.03033 8.46967L5.03033 4.46967L3.96967 5.53033ZM9.03033 9.53033L13.0303 5.53033L11.9697 4.46967L7.96967 8.46967L9.03033 9.53033ZM11.9697 5.53033L15.9697 9.53033L17.0303 8.46967L13.0303 4.46967L11.9697 5.53033ZM4.5 19.75H20.5V18.25H4.5V19.75Z" />
        </symbol>
        <symbol id="arrow-right" xmlns="http://www.w3.org/2000/svg">
            <path d="M9.46967 16.4697C9.17678 16.7626 9.17678 17.2374 9.46967 17.5303C9.76256 17.8232 10.2374 17.8232 10.5303 17.5303L9.46967 16.4697ZM15 12L15.5303 12.5303C15.671 12.3897 15.75 12.1989 15.75 12C15.75 11.8011 15.671 11.6103 15.5303 11.4697L15 12ZM10.5303 6.46967C10.2374 6.17678 9.76256 6.17678 9.46967 6.46967C9.17678 6.76256 9.17678 7.23744 9.46967 7.53033L10.5303 6.46967ZM10.5303 17.5303L15.5303 12.5303L14.4697 11.4697L9.46967 16.4697L10.5303 17.5303ZM15.5303 11.4697L10.5303 6.46967L9.46967 7.53033L14.4697 12.5303L15.5303 11.4697Z" />
        </symbol>
        <symbol id="arrow-left" xmlns="http://www.w3.org/2000/svg">
            <path d="M14.5303 7.53033C14.8232 7.23744 14.8232 6.76256 14.5303 6.46967C14.2374 6.17678 13.7626 6.17678 13.4697 6.46967L14.5303 7.53033ZM9 12L8.46967 11.4697C8.32902 11.6103 8.25 11.8011 8.25 12C8.25 12.1989 8.32902 12.3897 8.46967 12.5303L9 12ZM13.4697 17.5303C13.7626 17.8232 14.2374 17.8232 14.5303 17.5303C14.8232 17.2374 14.8232 16.7626 14.5303 16.4697L13.4697 17.5303ZM13.4697 6.46967L8.46967 11.4697L9.53033 12.5303L14.5303 7.53033L13.4697 6.46967ZM8.46967 12.5303L13.4697 17.5303L14.5303 16.4697L9.53033 11.4697L8.46967 12.5303Z" />
        </symbol>
        <symbol id="link" xmlns="http://www.w3.org/2000/svg">
            <path d="M15 15.25C14.5858 15.25 14.25 15.5858 14.25 16C14.25 16.4142 14.5858 16.75 15 16.75V15.25ZM15 7.25C14.5858 7.25 14.25 7.58579 14.25 8C14.25 8.41421 14.5858 8.75 15 8.75V7.25ZM8 11.25C7.58579 11.25 7.25 11.5858 7.25 12C7.25 12.4142 7.58579 12.75 8 12.75V11.25ZM16 12.75C16.4142 12.75 16.75 12.4142 16.75 12C16.75 11.5858 16.4142 11.25 16 11.25V12.75ZM9 8.75C9.41421 8.75 9.75 8.41421 9.75 8C9.75 7.58579 9.41421 7.25 9 7.25V8.75ZM9 16.75C9.41421 16.75 9.75 16.4142 9.75 16C9.75 15.5858 9.41421 15.25 9 15.25V16.75ZM17 8.75C18.7949 8.75 20.25 10.2051 20.25 12H21.75C21.75 9.37665 19.6234 7.25 17 7.25V8.75ZM20.25 12C20.25 13.7949 18.7949 15.25 17 15.25V16.75C19.6234 16.75 21.75 14.6234 21.75 12H20.25ZM17 15.25H15V16.75H17V15.25ZM17 7.25H15V8.75H17V7.25ZM8 12.75H16V11.25H8V12.75ZM7 15.25C5.20507 15.25 3.75 13.7949 3.75 12H2.25C2.25 14.6234 4.37665 16.75 7 16.75V15.25ZM3.75 12C3.75 10.2051 5.20507 8.75 7 8.75V7.25C4.37665 7.25 2.25 9.37665 2.25 12H3.75ZM7 8.75H9V7.25H7V8.75ZM7 16.75H9V15.25H7V16.75Z" />
        </symbol>
        <symbol id="quote-icon" xmlns="http://www.w3.org/2000/svg">
            <path d="M16.5 14L17.0303 13.4697C16.8897 13.329 16.6989 13.25 16.5 13.25V14ZM20 17.5L19.4697 18.0303C19.6842 18.2448 20.0068 18.309 20.287 18.1929C20.5673 18.0768 20.75 17.8033 20.75 17.5H20ZM6.5 14L7.03033 13.4697C6.88968 13.329 6.69891 13.25 6.5 13.25V14ZM10 17.5L9.46967 18.0303C9.68417 18.2448 10.0068 18.309 10.287 18.1929C10.5673 18.0768 10.75 17.8033 10.75 17.5H10ZM16.5 13.25C14.9812 13.25 13.75 12.0188 13.75 10.5H12.25C12.25 12.8472 14.1528 14.75 16.5 14.75V13.25ZM13.75 10.5C13.75 8.98122 14.9812 7.75 16.5 7.75V6.25C14.1528 6.25 12.25 8.15279 12.25 10.5H13.75ZM16.5 7.75C18.0188 7.75 19.25 8.98122 19.25 10.5H20.75C20.75 8.15279 18.8472 6.25 16.5 6.25V7.75ZM15.9697 14.5303L19.4697 18.0303L20.5303 16.9697L17.0303 13.4697L15.9697 14.5303ZM20.75 17.5V10.5H19.25V17.5H20.75ZM6.5 13.25C4.98122 13.25 3.75 12.0188 3.75 10.5H2.25C2.25 12.8472 4.15279 14.75 6.5 14.75V13.25ZM3.75 10.5C3.75 8.98122 4.98122 7.75 6.5 7.75V6.25C4.15279 6.25 2.25 8.15279 2.25 10.5H3.75ZM6.5 7.75C8.01878 7.75 9.25 8.98122 9.25 10.5H10.75C10.75 8.15279 8.84721 6.25 6.5 6.25V7.75ZM5.96967 14.5303L9.46967 18.0303L10.5303 16.9697L7.03033 13.4697L5.96967 14.5303ZM10.75 17.5V10.5H9.25V17.5H10.75Z" />
        </symbol>
        <symbol id="address-icon" xmlns="http://www.w3.org/2000/svg">
            <path d="M11.25 21C11.25 21.4142 11.5858 21.75 12 21.75C12.4142 21.75 12.75 21.4142 12.75 21H11.25ZM11.25 13V21H12.75V13H11.25ZM16.25 8C16.25 10.3472 14.3472 12.25 12 12.25V13.75C15.1756 13.75 17.75 11.1756 17.75 8H16.25ZM12 12.25C9.65279 12.25 7.75 10.3472 7.75 8H6.25C6.25 11.1756 8.82436 13.75 12 13.75V12.25ZM7.75 8C7.75 5.65279 9.65279 3.75 12 3.75V2.25C8.82436 2.25 6.25 4.82436 6.25 8H7.75ZM12 3.75C14.3472 3.75 16.25 5.65279 16.25 8H17.75C17.75 4.82436 15.1756 2.25 12 2.25V3.75Z" />
        </symbol>
        <symbol id="phone-icon" xmlns="http://www.w3.org/2000/svg">
            <path d="M20.9995 16.4767L20.2497 16.458C20.2495 16.4642 20.2495 16.4705 20.2495 16.4767H20.9995ZM20.9995 19.1864H20.2494L20.2495 19.1895L20.9995 19.1864ZM4.80817 3.00009V2.25009L4.80746 2.25009L4.80817 3.00009ZM7.52331 3.00009V3.75012L7.53068 3.75005L7.52331 3.00009ZM8.72138 3.43684L8.2329 4.00596V4.00596L8.72138 3.43684ZM8.41026 10.1448L7.88045 9.61399C7.64112 9.85285 7.59121 10.2223 7.7586 10.5161L8.41026 10.1448ZM13.8405 15.5644L13.4704 16.2167C13.7636 16.383 14.1317 16.3334 14.3703 16.0952L13.8405 15.5644ZM20.5709 15.264L21.1427 14.7786V14.7786L20.5709 15.264ZM10.0429 8.10428L10.7763 8.26101L10.0429 8.10428ZM15.8851 13.935L16.0413 14.6686L15.8851 13.935ZM19.0265 20.9929L19.0938 20.246C19.0712 20.2439 19.0486 20.2429 19.0259 20.2429L19.0265 20.9929ZM3.00713 4.96919L3.75713 4.96978C3.75714 4.947 3.75612 4.92424 3.75407 4.90155L3.00713 4.96919ZM14.6436 5.76388C14.2371 5.68456 13.8432 5.94983 13.7639 6.35638C13.6846 6.76293 13.9498 7.1568 14.3564 7.23612L14.6436 5.76388ZM16.7639 9.64362C16.8432 10.0502 17.2371 10.3154 17.6436 10.2361C18.0502 10.1568 18.3154 9.76293 18.2361 9.35638L16.7639 9.64362ZM15.0828 2.25459C14.6711 2.20885 14.3003 2.50551 14.2546 2.91719C14.2089 3.32887 14.5055 3.69968 14.9172 3.74541L15.0828 2.25459ZM19 5L19.53 4.46934L19 5ZM20.2547 9.08375C20.3009 9.49537 20.6721 9.79156 21.0837 9.74531C21.4954 9.69906 21.7916 9.32788 21.7453 8.91625L20.2547 9.08375ZM20.2495 16.4767V19.1864H21.7495V16.4767H20.2495ZM4.80817 3.75009H7.52331V2.25009H4.80817V3.75009ZM7.53068 3.75005C7.78834 3.74752 8.03791 3.8386 8.2329 4.00596L9.20985 2.86772C8.73878 2.46341 8.13673 2.24403 7.51594 2.25012L7.53068 3.75005ZM7.7586 10.5161C9.11389 12.8949 11.0873 14.8643 13.4704 16.2167L14.2107 14.9121C12.0622 13.6928 10.2834 11.9175 9.06191 9.77357L7.7586 10.5161ZM19.9992 15.7494C20.1671 15.9472 20.2561 16.1994 20.2497 16.458L21.7492 16.4953C21.7648 15.868 21.5488 15.257 21.1427 14.7786L19.9992 15.7494ZM8.2329 4.00596C8.35549 4.11118 8.51659 4.32916 8.68369 4.67844C8.84497 5.01557 8.9876 5.42365 9.09918 5.85282C9.33166 6.74707 9.38949 7.57289 9.30943 7.94755L10.7763 8.26101C10.9306 7.53916 10.8011 6.43759 10.5509 5.47541C10.4212 4.97637 10.2487 4.47397 10.0368 4.0311C9.83075 3.60038 9.56067 3.16883 9.20985 2.86772L8.2329 4.00596ZM16.0413 14.6686C16.4183 14.5883 17.25 14.6466 18.1485 14.8801C18.58 14.9922 18.9898 15.1355 19.3278 15.2975C19.6782 15.4655 19.8954 15.6272 19.9992 15.7494L21.1427 14.7786C20.8418 14.4242 20.4084 14.1521 19.9763 13.9449C19.5318 13.7318 19.0271 13.5585 18.5258 13.4283C17.5589 13.177 16.4523 13.0475 15.729 13.2014L16.0413 14.6686ZM14.3703 16.0952C14.5321 15.9338 14.6946 15.7535 14.8397 15.5953C14.991 15.4303 15.1318 15.2798 15.2754 15.1446C15.5686 14.8684 15.8113 14.7175 16.0413 14.6686L15.729 13.2014C15.1012 13.335 14.6149 13.7061 14.247 14.0526C14.06 14.2287 13.8871 14.4147 13.7341 14.5815C13.5748 14.7552 13.4424 14.9021 13.3107 15.0335L14.3703 16.0952ZM9.30943 7.94755C9.26059 8.17614 9.10984 8.41795 8.833 8.71075C8.69753 8.85403 8.54673 8.99453 8.38134 9.1456C8.22285 9.29036 8.04217 9.45259 7.88045 9.61399L8.94006 10.6757C9.0717 10.5443 9.21891 10.4121 9.39295 10.2531C9.5601 10.1005 9.74648 9.92793 9.92296 9.74128C10.27 9.3742 10.6422 8.8885 10.7763 8.26101L9.30943 7.94755ZM19.0259 20.2429C10.4163 20.2497 3.75039 13.523 3.75713 4.96978L2.25713 4.96859C2.24974 14.3469 9.58385 21.7503 19.027 21.7429L19.0259 20.2429ZM20.2495 19.1895C20.2519 19.7851 19.6976 20.3004 19.0938 20.246L18.9591 21.7399C20.4469 21.8741 21.7555 20.6595 21.7494 19.1834L20.2495 19.1895ZM3.75407 4.90155C3.70006 4.30506 4.21004 3.75065 4.80887 3.75009L4.80746 2.25009C3.33723 2.25147 2.12581 3.55284 2.26018 5.03682L3.75407 4.90155ZM14.3564 7.23612C14.9878 7.35931 15.5701 7.63076 15.9697 8.03033L17.0303 6.96967C16.3677 6.30708 15.4866 5.92834 14.6436 5.76388L14.3564 7.23612ZM15.9697 8.03033C16.3692 8.4299 16.6407 9.01224 16.7639 9.64362L18.2361 9.35638C18.0717 8.51344 17.6929 7.63226 17.0303 6.96967L15.9697 8.03033ZM14.9172 3.74541C16.2556 3.8941 17.4818 4.54368 18.47 5.53066L19.53 4.46934C18.3376 3.27846 16.8075 2.44618 15.0828 2.25459L14.9172 3.74541ZM18.47 5.53066C19.4567 6.51616 20.1041 7.74372 20.2547 9.08375L21.7453 8.91625C21.5518 7.19365 20.7239 5.6617 19.53 4.46934L18.47 5.53066Z" />
        </symbol>
        <symbol id="email-icon" xmlns="http://www.w3.org/2000/svg">
            <path d="M10.5858 12.5857L11.1161 12.0554L11.1161 12.0554L10.5858 12.5857ZM13.4142 12.5857L12.8839 12.0554L12.8839 12.0554L13.4142 12.5857ZM4 5.75H20V4.25H4V5.75ZM20.25 6V18H21.75V6H20.25ZM20 18.25H4V19.75H20V18.25ZM3.75 18V6H2.25V18H3.75ZM4 18.25C3.86193 18.25 3.75 18.1381 3.75 18H2.25C2.25 18.9665 3.0335 19.75 4 19.75V18.25ZM20.25 18C20.25 18.1381 20.1381 18.25 20 18.25V19.75C20.9665 19.75 21.75 18.9665 21.75 18H20.25ZM4 4.25C3.51696 4.25 3.07843 4.4467 2.76256 4.76256L3.82322 5.82322C3.86929 5.77716 3.93076 5.75 4 5.75V4.25ZM2.76256 4.76256C2.4467 5.07843 2.25 5.51696 2.25 6H3.75C3.75 5.93076 3.77716 5.86929 3.82322 5.82322L2.76256 4.76256ZM20 5.75C20.0692 5.75 20.1307 5.77716 20.1768 5.82322L21.2374 4.76256C20.9216 4.4467 20.483 4.25 20 4.25V5.75ZM20.1768 5.82322C20.2228 5.86928 20.25 5.93076 20.25 6H21.75C21.75 5.51696 21.5533 5.07843 21.2374 4.76256L20.1768 5.82322ZM10.0555 13.1161C11.1294 14.19 12.8706 14.19 13.9445 13.1161L12.8839 12.0554C12.3957 12.5436 11.6043 12.5436 11.1161 12.0554L10.0555 13.1161ZM2.76256 5.82323L10.0555 13.1161L11.1161 12.0554L3.82322 4.76256L2.76256 5.82323ZM13.9445 13.1161L21.2374 5.82323L20.1768 4.76256L12.8839 12.0554L13.9445 13.1161Z" />
        </symbol>
        <symbol id="menu" xmlns="http://www.w3.org/2000/svg">
            <path d="M4 16.25C3.58579 16.25 3.25 16.5858 3.25 17C3.25 17.4142 3.58579 17.75 4 17.75V16.25ZM20 17.75C20.4142 17.75 20.75 17.4142 20.75 17C20.75 16.5858 20.4142 16.25 20 16.25V17.75ZM4 11.25C3.58579 11.25 3.25 11.5858 3.25 12C3.25 12.4142 3.58579 12.75 4 12.75V11.25ZM20 12.75C20.4142 12.75 20.75 12.4142 20.75 12C20.75 11.5858 20.4142 11.25 20 11.25V12.75ZM4 6.25C3.58579 6.25 3.25 6.58579 3.25 7C3.25 7.41421 3.58579 7.75 4 7.75V6.25ZM20 7.75C20.4142 7.75 20.75 7.41421 20.75 7C20.75 6.58579 20.4142 6.25 20 6.25V7.75ZM4 17.75H20V16.25H4V17.75ZM4 12.75H20V11.25H4V12.75ZM4 7.75H20V6.25H4V7.75Z" />
        </symbol>
    </defs>
</svg>